<svg width="23" height="19" viewBox="0 0 23 19" fill="none" xmlns="http://www.w3.org/2000/svg">
<g id="Heart">
<path id="Icon" fill-rule="evenodd" clip-rule="evenodd" d="M0.327148 6.0617C0.327148 2.6742 3.299 0.065918 6.78731 0.065918C8.58546 0.065918 10.1677 0.909049 11.3032 1.99999C12.4386 0.909049 14.0208 0.065918 15.819 0.065918C19.3073 0.065918 22.2792 2.6742 22.2792 6.0617C22.2792 8.38218 21.2896 10.4228 19.9186 12.1477C18.55 13.8697 16.7597 15.3311 15.0456 16.5186C14.3909 16.9722 13.7286 17.3906 13.1224 17.6993C12.5532 17.9892 11.8987 18.2547 11.3032 18.2547C10.7076 18.2547 10.0531 17.9892 9.48393 17.6993C8.87775 17.3906 8.2154 16.9722 7.56069 16.5186C5.84657 15.3311 4.05632 13.8697 2.68771 12.1477C1.31672 10.4228 0.327148 8.38218 0.327148 6.0617ZM6.78731 1.94752C4.1791 1.94752 2.20875 3.86562 2.20875 6.0617C2.20875 7.82224 2.95611 9.46138 4.16071 10.977C5.36768 12.4955 6.99168 13.8354 8.63221 14.9719C9.25299 15.402 9.83769 15.7679 10.3378 16.0226C10.875 16.2962 11.1861 16.3731 11.3032 16.3731C11.4202 16.3731 11.7313 16.2962 12.2685 16.0226C12.7686 15.7679 13.3533 15.402 13.9741 14.9719C15.6146 13.8354 17.2386 12.4955 18.4456 10.977C19.6502 9.46138 20.3976 7.82224 20.3976 6.0617C20.3976 3.86562 18.4272 1.94752 15.819 1.94752C14.3211 1.94752 12.9223 2.84244 12.049 3.9783C11.8709 4.20991 11.5953 4.34564 11.3032 4.34564C11.011 4.34564 10.7354 4.20991 10.5573 3.9783C9.68398 2.84244 8.28525 1.94752 6.78731 1.94752Z" fill="#323142"/>
</g>
</svg>
