<svg width="24" height="24" viewBox="0 0 24 24" fill="none" xmlns="http://www.w3.org/2000/svg">
<g id="Star">
<path id="Edit Color" d="M14.2962 19.5164C15.8196 20.3503 17.1594 19.3397 16.8681 17.571L16.3449 14.3953L18.561 12.1462C19.7935 10.8954 19.2843 9.25645 17.5786 8.9984L14.516 8.53507L13.1532 5.66001C12.3898 4.04954 10.7322 4.03222 9.96736 5.64572L8.59772 8.53507L5.53512 8.9984C3.83184 9.25609 3.3185 10.8936 4.55274 12.1462L6.76886 14.3953L6.24571 17.571C5.95475 19.3372 7.29199 20.3515 8.81761 19.5164L11.5569 18.0171L14.2962 19.5164Z" fill="#6C5FBC"/>
<mask id="mask0_1_16592" style="mask-type:luminance" maskUnits="userSpaceOnUse" x="3" y="4" width="17" height="16">
<path id="Edit Color_2" d="M14.2962 19.5164C15.8196 20.3503 17.1594 19.3397 16.8681 17.571L16.3449 14.3953L18.561 12.1462C19.7935 10.8954 19.2843 9.25645 17.5786 8.9984L14.516 8.53507L13.1532 5.66001C12.3898 4.04954 10.7322 4.03222 9.96736 5.64572L8.59772 8.53507L5.53512 8.9984C3.83184 9.25609 3.3185 10.8936 4.55274 12.1462L6.76886 14.3953L6.24571 17.571C5.95475 19.3372 7.29199 20.3515 8.81761 19.5164L11.5569 18.0171L14.2962 19.5164Z" fill="white"/>
</mask>
<g mask="url(#mask0_1_16592)">
</g>
</g>
</svg>
